<?xml version="1.0" encoding="UTF-8"?>
<svg version="1.1" xmlns="http://www.w3.org/2000/svg" width="512" height="512">
<path d="M0 0 C2.81749382 0.0046934 5.63385722 -0.00904726 8.45117188 -0.04101562 C51.82859829 -0.5273033 90.36416323 11.73040149 127.74707031 33.50097656 C128.8440625 34.13777344 129.94105469 34.77457031 131.07128906 35.43066406 C142.70930556 42.5324026 152.99546043 51.49616423 162.87988281 60.82519531 C165.22027092 63.00934498 167.59206969 65.08954532 170.05957031 67.12597656 C170.94644531 67.90972656 171.83332031 68.69347656 172.74707031 69.50097656 C172.74707031 70.16097656 172.74707031 70.82097656 172.74707031 71.50097656 C173.40707031 71.50097656 174.06707031 71.50097656 174.74707031 71.50097656 C176.22753906 72.96972656 176.22753906 72.96972656 177.93457031 75.00097656 C178.55203125 75.72800781 179.16949219 76.45503906 179.80566406 77.20410156 C180.44632812 77.96207031 181.08699219 78.72003906 181.74707031 79.50097656 C182.99479015 80.91965188 184.24469762 82.33640698 185.49707031 83.75097656 C187.19683116 85.67313602 188.69051786 87.40441059 189.98925781 89.62207031 C192.55984348 92.36974077 195.56743599 92.63838775 199.12207031 93.31347656 C216.61539559 97.18680057 230.14432184 107.51688588 239.74707031 122.50097656 C241.73073968 126.08246439 243.39496413 129.63711109 244.74707031 133.50097656 C244.99325356 134.17277514 245.2394368 134.84457371 245.49308014 135.53672981 C248.470864 144.77670122 248.18450178 153.93841771 248.16699219 163.53564453 C248.1743425 165.44718926 248.18293151 167.35872956 248.19265747 169.27026367 C248.21477969 174.43564936 248.21780886 179.60087508 248.21590996 184.76630163 C248.21578984 189.09011362 248.22437076 193.41389222 248.23268747 197.73769486 C248.25188772 207.94413066 248.25481752 218.15048469 248.24804688 228.35693359 C248.24140691 238.86062172 248.26427661 249.36395861 248.30136061 259.86757553 C248.33211869 268.90998436 248.34341106 277.95228055 248.33952379 286.99474061 C248.33746281 292.38470248 248.34283504 297.77439084 248.36741638 303.16430283 C248.38978237 308.23543075 248.38772406 313.30598976 248.36748886 318.37712097 C248.36409633 320.22934034 248.36909142 322.08159876 248.38347244 323.93376541 C248.49441211 339.29142334 246.22733505 351.70089567 235.12597656 363.17675781 C226.7205901 370.99978493 217.50901281 372.7271112 206.38769531 372.66894531 C201.69506916 372.45244003 197.28770062 371.67275213 192.74707031 370.50097656 C192.225 371.22800781 191.70292969 371.95503906 191.16503906 372.70410156 C185.48741311 380.45987782 179.38489917 387.55441148 172.74707031 394.50097656 C171.60238281 395.70753906 171.60238281 395.70753906 170.43457031 396.93847656 C165.82821281 401.67644428 160.96613813 405.94341692 155.80175781 410.06347656 C153.63678292 411.79102686 151.50178201 413.53498524 149.37988281 415.31347656 C121.87114686 438.17597498 88.5929255 452.85664964 53.74707031 460.50097656 C52.92658203 460.695625 52.10609375 460.89027344 51.26074219 461.09082031 C19.6652832 468.37658553 -16.86114135 467.10330269 -48.25292969 459.50097656 C-49.29803711 459.24928711 -50.34314453 458.99759766 -51.41992188 458.73828125 C-89.99628215 449.09722296 -124.2829998 430.66622229 -153.25292969 403.50097656 C-154.62238793 402.30708989 -155.99698039 401.11905282 -157.37792969 399.93847656 C-169.55657081 389.23603436 -178.91676069 376.67534837 -188.25292969 363.50097656 C-189.43048828 364.22414063 -189.43048828 364.22414063 -190.63183594 364.96191406 C-191.68242187 365.59355469 -192.73300781 366.22519531 -193.81542969 366.87597656 C-194.84796875 367.50246094 -195.88050781 368.12894531 -196.94433594 368.77441406 C-205.73749298 373.36305091 -215.71805529 373.94951295 -225.35449219 371.81347656 C-236.15472794 368.16269265 -244.62380426 361.92144886 -250.37792969 352.06347656 C-254.78780641 342.9804469 -253.96875025 328.93783779 -251.74169922 319.28515625 C-250.48532958 315.71220558 -248.55391828 312.58948062 -246.47753906 309.44091797 C-243.83090416 305.24830215 -241.59445191 300.8061829 -239.25292969 296.43847656 C-233.60571215 285.9829812 -233.60571215 285.9829812 -230.88964844 281.72753906 C-226.15520369 274.04236823 -225.65243167 268.53105511 -226.96459961 259.63916016 C-235.294984 197.86311737 -215.89128607 136.93980202 -178.84277344 87.83691406 C-167.38588713 72.93670127 -153.23799122 58.85468883 -138.25292969 47.50097656 C-137.35058594 46.78167969 -136.44824219 46.06238281 -135.51855469 45.32128906 C-112.47405881 27.32166931 -84.67147047 14.75340635 -56.69042969 6.75097656 C-55.71033936 6.46899414 -54.73024902 6.18701172 -53.72045898 5.89648438 C-50.57752079 5.0319246 -47.424947 4.25181587 -44.25292969 3.50097656 C-43.11291504 3.21996094 -41.97290039 2.93894531 -40.79833984 2.64941406 C-27.33734139 -0.21571674 -13.70149368 -0.02630495 0 0 Z " fill="#4455A5" transform="translate(256.2529296875,28.4990234375)"/>
<path d="M0 0 C10.24720372 7.95776683 16.62509734 19.13496734 18.53515625 31.96875 C18.83319195 37.09211666 18.83662052 42.20923783 18.83813477 47.33911133 C18.84580743 48.88073161 18.85435596 50.42234774 18.8637085 51.96395874 C18.88190166 55.26725016 18.89399431 58.57048595 18.90124702 61.87381935 C18.91278207 67.09706824 18.93825683 72.32019387 18.96556091 77.54338074 C19.00711082 85.80084074 19.0395753 94.05830677 19.06803507 102.31582135 C19.11912714 117.11734576 19.18118899 131.91881869 19.25337547 146.72025508 C19.27828179 151.91333157 19.29771952 157.10639171 19.31275761 162.29950583 C19.32295719 165.52499671 19.33710241 168.75046194 19.35223389 171.97593307 C19.35839131 173.47232014 19.36284955 174.96871529 19.36549187 176.46511269 C19.36930201 178.50607742 19.37967722 180.54702677 19.39039612 182.58796692 C19.39425103 183.73036237 19.39810595 184.87275782 19.40207767 186.04977131 C19.51553364 188.53834278 19.80861048 190.59918089 20.53515625 192.96875 C21.94818863 193.2193519 23.36595099 193.44336921 24.78515625 193.65625 C25.5740625 193.78386719 26.36296875 193.91148437 27.17578125 194.04296875 C30.25693512 193.94604504 31.30901894 193.05857628 33.53515625 190.96875 C34.14208945 188.910987 34.14208945 188.910987 34.06518555 186.57128906 C34.08173187 185.65879395 34.0982782 184.74629883 34.11532593 183.80615234 C34.11336212 182.79246582 34.11139832 181.7787793 34.109375 180.734375 C34.12304108 179.6417334 34.13670715 178.5490918 34.15078735 177.42333984 C34.17820778 174.99003392 34.19615582 172.55660861 34.20620728 170.12316895 C34.22292736 166.15439882 34.26419796 162.18626148 34.3112793 158.21777344 C34.48088894 143.04632961 34.54243897 127.87401504 34.61483669 112.70186234 C34.66016894 103.38398165 34.7187998 94.06622097 34.7834177 84.74845505 C34.83044056 77.75030996 34.85766379 70.75243015 34.8704071 63.75414276 C34.88238483 59.32037611 34.91072867 54.88681563 34.94309616 50.45315552 C34.95485384 48.37312549 34.9597914 46.29304408 34.95741653 44.21298218 C34.94502773 28.96102582 36.18643714 18.77379206 46.53515625 6.96875 C47.04691406 6.35128906 47.55867187 5.73382813 48.0859375 5.09765625 C55.29054478 -2.92931315 66.03310775 -8.20093899 76.75756836 -9.24829102 C92.38753277 -10.05865966 104.28136765 -7.39052908 116.5859375 2.640625 C120.74354151 6.41879719 123.57091909 10.48016851 126.32421875 15.3671875 C126.66893723 15.97883759 127.0136557 16.59048767 127.36882019 17.22067261 C130.69522302 23.1674096 133.82848189 29.20889095 136.92196655 35.27987671 C141.77102227 44.78151929 146.6688147 54.26192699 151.72265625 63.65625 C152.15553955 64.4807666 152.58842285 65.3052832 153.03442383 66.15478516 C153.64386841 67.27506104 153.64386841 67.27506104 154.265625 68.41796875 C154.78225708 69.38222778 154.78225708 69.38222778 155.30932617 70.3659668 C156.8382849 72.36509328 158.20272105 73.06377962 160.53515625 73.96875 C164.52668774 74.30137762 167.16438564 74.15385967 170.53515625 71.96875 C172.14140192 69.73423436 172.14140192 69.73423436 173.49609375 67 C174.04313965 65.96641357 174.59018555 64.93282715 175.15380859 63.86791992 C176.02320068 62.18533081 176.02320068 62.18533081 176.91015625 60.46875 C177.84061619 58.70540414 178.77109196 56.94206639 179.70254517 55.179245 C180.6712417 53.34225938 181.63498301 51.50274605 182.59765625 49.66259766 C208.96169076 -0.6791288 208.96169076 -0.6791288 227.34765625 -7.34375 C241.26549499 -11.30871569 255.61944083 -10.20350156 268.42578125 -3.5234375 C280.16057963 3.36995499 287.48480659 13.09497909 291.14761353 26.16207886 C293.13414653 34.42365514 292.9556749 42.61859674 292.92333984 51.06298828 C292.92741256 52.86132118 292.93275835 54.65965157 292.93927002 56.45797729 C292.95286418 61.30908634 292.94767835 66.16000248 292.93813276 71.0111146 C292.93049735 76.1046539 292.93759229 81.19817752 292.94229126 86.29171753 C292.94773656 94.84050439 292.94058841 103.38921328 292.92626953 111.93798828 C292.90993495 121.80377382 292.91524237 131.66937341 292.93174875 141.53515446 C292.94538612 150.02806754 292.94727259 158.52092483 292.93943274 167.01384532 C292.93476994 172.07665546 292.93409312 177.13937833 292.94404221 182.20218277 C292.9527428 186.96131932 292.94663369 191.72021723 292.92935944 196.47932816 C292.92541152 198.21992091 292.9264994 199.96053394 292.93314743 201.70111847 C293.01140041 224.28014192 293.01140041 224.28014192 285.53515625 232.96875 C279.56938111 237.41289018 274.14065536 239.92113808 266.53515625 238.96875 C260.30082173 237.03435835 256.05768153 233.37876182 252.53515625 227.96875 C248.31846776 219.48272937 247.96749624 211.36364013 248.03686523 202.0456543 C248.03303385 200.57594759 248.02740786 199.10624464 248.0201416 197.6365509 C248.00826721 194.49416504 248.00862031 191.35211377 248.01873589 188.20972252 C248.03439512 183.23774222 248.02055297 178.26610074 248.00270081 173.29414368 C247.97199348 163.64421178 247.97037641 153.9943855 247.97235107 144.34441376 C247.97374758 132.04317943 247.96338101 119.74202546 247.92377335 107.44085056 C247.90886264 102.50078144 247.90909147 97.56101611 247.92125118 92.62094247 C247.9259658 89.54937845 247.9184375 86.47793055 247.90770721 83.40638542 C247.90530408 81.98500738 247.90802582 80.56360978 247.91631508 79.14225388 C247.92697186 77.1984749 247.91743777 75.25461678 247.90696716 73.31083679 C247.90755347 72.22450297 247.90813978 71.13816916 247.90874386 70.01891613 C247.35253338 65.47772063 245.7961833 62.11850995 242.41015625 59.03125 C238.36974055 57.53805289 234.63736998 57.62580705 230.53515625 58.96875 C227.20015792 61.87194181 225.26788517 64.92353556 223.21484375 68.81640625 C222.29529907 70.54745605 222.29529907 70.54745605 221.35717773 72.31347656 C220.70814319 73.55272003 220.05913657 74.79197813 219.41015625 76.03125 C218.73908042 77.29823201 218.06728166 78.56483136 217.39477539 79.83105469 C214.41109573 85.45823969 211.4600578 91.10172476 208.5390625 96.76171875 C208.09900879 97.61048584 207.65895508 98.45925293 207.20556641 99.33374023 C206.41549153 100.86210489 205.63198959 102.39389615 204.85693359 103.92993164 C198.4251945 116.40073216 189.68983827 124.55932777 176.30078125 129.0546875 C164.24151426 131.98193696 152.02308279 130.41545037 141.08203125 124.68359375 C131.07855834 118.57603121 125.34593092 109.58653447 120.28515625 99.28125 C119.16705488 97.07336195 118.04722481 94.8663486 116.92578125 92.66015625 C116.36568359 91.55043457 115.80558594 90.44071289 115.22851562 89.29736328 C112.567372 84.06638978 109.81876997 78.88538519 107.03515625 73.71875 C106.55530273 72.80907471 106.07544922 71.89939941 105.58105469 70.9621582 C101.40250508 63.2293745 101.40250508 63.2293745 94.53515625 57.96875 C90.12207282 57.92615267 86.57212326 58.16510056 83.03515625 60.90625 C80.29195816 64.67814738 80.22020853 67.95767762 79.98583984 72.49267578 C79.94380621 73.28501177 79.90177258 74.07734776 79.85846519 74.89369392 C79.37672044 84.94471522 79.36641306 95.00131019 79.33592606 105.06185532 C79.32393691 108.67077459 79.30444428 112.27958454 79.2828064 115.88845825 C79.22180693 126.13491162 79.16707442 136.38134528 79.13378906 146.62792969 C79.11277776 152.9317038 79.07744645 159.23526297 79.03303146 165.53891373 C79.01895018 167.92372226 79.01016699 170.30856863 79.00697708 172.6934166 C79.00203507 176.03005134 78.97879952 179.36611859 78.95166016 182.70263672 C78.95616936 184.1524015 78.95616936 184.1524015 78.96076965 185.63145447 C78.77738448 200.91419026 73.51323869 213.6018037 63.015625 224.6796875 C51.85905446 234.97535732 38.32960882 239.39873904 23.36328125 239.2421875 C8.74806865 238.19824374 -3.10265798 231.43012379 -13.1015625 220.96875 C-15.84012305 217.49236239 -17.95144334 213.96182041 -19.96484375 210.03125 C-20.29121826 209.39968994 -20.61759277 208.76812988 -20.95385742 208.11743164 C-25.45488392 198.66611462 -25.76089381 188.52928294 -25.75195312 178.23291016 C-25.75878616 177.01038544 -25.7656192 175.78786072 -25.7726593 174.52828979 C-25.78617398 171.89339359 -25.79626389 169.25875992 -25.80036926 166.62385941 C-25.80714229 162.45451712 -25.82896048 158.28533249 -25.85290527 154.11605835 C-25.90576321 144.52304943 -25.93942322 134.92999225 -25.97266388 125.3368988 C-26.00338505 116.5212034 -26.03820835 107.70557689 -26.08897448 98.88997114 C-26.11226795 94.74752566 -26.12604929 90.6051922 -26.13246918 86.46268773 C-26.1398081 83.28449324 -26.1598167 80.10637245 -26.17773438 76.92822266 C-26.17675247 75.78528748 -26.17577057 74.64235229 -26.17475891 73.46478271 C-26.18303207 72.41362274 -26.19130524 71.36246277 -26.1998291 70.27944946 C-26.20422878 68.91404243 -26.20422878 68.91404243 -26.20871735 67.52105141 C-26.49647298 64.65356448 -27.16211508 62.53642514 -28.46484375 59.96875 C-32.55505796 57.77400091 -36.66223515 57.45711607 -41.18798828 58.21704102 C-49.53940375 60.97427973 -54.18052388 75.50557798 -58.02734375 82.90625 C-58.82833201 84.43423751 -59.62993406 85.96190342 -60.43212891 87.48925781 C-65.62830293 97.39498003 -70.77389366 107.32734414 -75.91455078 117.26196289 C-79.79459966 124.73966365 -83.81222539 132.13463946 -87.87207031 139.51586914 C-93.73109765 150.20965196 -99.28505689 161.06123816 -104.87646484 171.89648438 C-108.22379515 178.37093942 -111.61442717 184.8221753 -115.02929688 191.26123047 C-116.0998161 193.28028798 -117.16853771 195.3002988 -118.23632812 197.32080078 C-119.87414222 200.41926227 -121.5175149 203.51473083 -123.16384888 206.6086731 C-123.81043992 207.82538054 -124.45558063 209.04286012 -125.09909058 210.26119995 C-138.30510751 235.24883792 -138.30510751 235.24883792 -149.46484375 238.96875 C-156.19601444 239.79325083 -161.73364762 238.61685601 -167.46484375 234.96875 C-172.39055229 230.82643302 -175.60792089 225.38122893 -176.46484375 218.96875 C-176.27683191 212.62268 -174.84711631 207.75666935 -171.8515625 202.20703125 C-171.48612335 201.50278519 -171.1206842 200.79853912 -170.74417114 200.07295227 C-169.56079711 197.80145032 -168.35710076 195.54147197 -167.15234375 193.28125 C-166.32206949 191.69832584 -165.49289493 190.11482441 -164.66479492 188.53076172 C-159.83438015 179.31807658 -154.90519511 170.15846346 -149.8737793 161.05395508 C-145.76359799 153.59714394 -141.8556962 146.04128112 -137.96484375 138.46875 C-133.60996209 129.99328346 -129.19850439 121.56004488 -124.58984375 113.21875 C-119.13921395 103.34788343 -113.99102866 93.33199021 -108.85263062 83.29656982 C-104.03513177 73.89303079 -99.12622682 64.55776844 -94.00097656 55.31713867 C-91.05082808 49.96709977 -88.21867786 44.56806734 -85.453125 39.12109375 C-85.10293808 38.43343933 -84.75275116 37.74578491 -84.39195251 37.03729248 C-82.6644284 33.64324975 -80.94679426 30.2448421 -79.24584961 26.83740234 C-70.90447339 10.300969 -62.13593749 -1.28863037 -44.46484375 -8.03125 C-29.171519 -12.26514024 -12.87101098 -8.7411758 0 0 Z " fill="#FEFEFE" transform="translate(195.46484375,146.03125)"/>
<path d="M0 0 C5.63356807 3.35870232 9.53919469 8.22043459 11.5625 14.4375 C12.43435202 21.78741526 12.17281278 28.43247075 7.5625 34.4375 C2.11176537 40.40847828 -2.73903407 43.01036673 -10.875 43.75 C-18.39242427 43.09057682 -24.47364302 40.20562748 -29.4375 34.4375 C-33.07253229 28.74368836 -34.42373813 23.12728394 -33.4375 16.4375 C-31.78870334 9.85417522 -28.9019891 5.24814505 -23.375 1.1875 C-16.65986397 -2.81300657 -7.18696625 -3.25920562 0 0 Z " fill="#FEFEFE" transform="translate(370.4375,291.5625)"/>
</svg>
