<svg width="24" height="24" viewBox="0 0 24 24" fill="none" xmlns="http://www.w3.org/2000/svg">
<mask id="mask0_3164_671609" style="mask-type:luminance" maskUnits="userSpaceOnUse" x="2" y="2" width="13" height="20">
<path d="M2 2.64062H14.537V21.7798H2V2.64062Z" fill="white"/>
</mask>
<g mask="url(#mask0_3164_671609)">
<path d="M11.544 15.5742C11.7951 15.689 11.9955 15.8478 12.1632 16.0651C12.3118 16.2846 12.4154 16.4895 12.4402 16.7552C12.4616 17.0783 12.4526 17.3688 12.3163 17.6694C12.1779 17.9193 11.9944 18.1366 11.7579 18.3021C11.4427 18.4755 11.1523 18.5554 10.7931 18.5487C10.4813 18.5205 10.2077 18.4091 9.95102 18.2334C9.70672 18.0409 9.54461 17.8146 9.42752 17.5275C9.33408 17.2708 9.33296 16.9894 9.35998 16.7192C9.42302 16.4096 9.56262 16.1686 9.76639 15.9311C9.96791 15.7161 10.1762 15.6035 10.4475 15.4977C10.8325 15.3952 11.1748 15.4324 11.544 15.5742ZM4.12611 2.76336C4.35127 2.85905 4.53478 2.99415 4.69915 3.17654L4.78358 3.2666C4.9502 3.47151 5.05265 3.70906 5.09543 3.968C5.13145 4.28661 5.09318 4.57707 4.96934 4.87429C4.8455 5.11747 4.66425 5.33363 4.44584 5.49575C4.17452 5.66688 3.90883 5.75132 3.58798 5.77046C3.28851 5.77046 3.03408 5.70516 2.77064 5.56218C2.51508 5.40118 2.31807 5.20979 2.17171 4.94409C2.049 4.68628 1.98596 4.42396 1.99046 4.138C2.01861 3.79462 2.14582 3.48952 2.33946 3.20581C2.5376 2.98852 2.79428 2.82978 3.06785 2.72846C3.42023 2.62263 3.78049 2.64402 4.12611 2.76336ZM9.65831 12.3521C9.95553 12.4906 10.1717 12.6628 10.3653 12.9263C10.5162 13.1582 10.5939 13.3901 10.6198 13.6648C10.631 13.9913 10.5713 14.2716 10.4239 14.5621C10.2944 14.7794 10.1424 14.9561 9.93414 15.1014C9.81368 15.1689 9.69209 15.2229 9.56262 15.2702L9.49507 15.295C9.24289 15.3738 8.96032 15.3648 8.70363 15.3153C8.44695 15.2455 8.24656 15.1363 8.04278 14.9674L7.97749 14.9156C7.78047 14.7422 7.65663 14.5047 7.56995 14.2592C7.49227 13.9485 7.48551 13.6592 7.56995 13.3496C7.6465 13.0827 7.78047 12.8756 7.97524 12.6763C8.20828 12.4692 8.44807 12.3442 8.75204 12.2721C9.05376 12.2159 9.37123 12.2395 9.65831 12.3521ZM13.4827 18.8099C13.7303 18.9404 13.9307 19.151 14.0861 19.3818C14.2246 19.6227 14.2944 19.8952 14.3011 20.1721C14.2978 20.4727 14.2099 20.7452 14.0625 21.0075C13.9127 21.2394 13.7225 21.4308 13.4815 21.5693C13.1832 21.719 12.8714 21.7505 12.5392 21.7336C12.233 21.692 11.9482 21.5513 11.7028 21.3689C11.4855 21.1719 11.3594 20.9287 11.2513 20.6607C11.1646 20.3804 11.1579 20.0978 11.2221 19.813C11.3054 19.5439 11.4337 19.2872 11.6251 19.0789C11.8446 18.8785 12.134 18.7322 12.4233 18.6579C12.7993 18.5959 13.1348 18.6567 13.4827 18.8099ZM5.79455 5.89317C6.1019 5.98662 6.34732 6.15549 6.56686 6.38741C6.75036 6.6047 6.86182 6.84225 6.92824 7.11808C6.95413 7.4243 6.94963 7.7159 6.83592 8.00636C6.71321 8.26305 6.54434 8.48934 6.3203 8.66722C6.07938 8.81133 5.82608 8.93405 5.54125 8.94756C5.49396 8.94756 5.44555 8.94756 5.39827 8.94756C5.37238 8.94756 5.34761 8.94756 5.32172 8.94756C5.04814 8.9408 4.83537 8.87888 4.59557 8.74716C4.34902 8.58954 4.15876 8.40828 4.02141 8.14934C3.86042 7.82735 3.8334 7.54364 3.84916 7.18901C3.8683 6.95596 3.96062 6.74993 4.0822 6.55404C4.27472 6.29059 4.47061 6.12172 4.76557 5.97986C5.09655 5.84701 5.44443 5.82675 5.79455 5.89317ZM7.73882 9.12656C7.79623 9.15133 7.85252 9.17835 7.90769 9.2065L7.9955 9.25041C8.21166 9.36637 8.37152 9.51272 8.51562 9.712C8.68674 10.0002 8.76555 10.2693 8.78469 10.6037C8.78694 10.8795 8.71489 11.1215 8.58317 11.3625C8.42894 11.6315 8.24205 11.8106 7.97524 11.9693C7.86491 12.0222 7.75458 12.0672 7.6375 12.1033L7.5767 12.1235C7.32902 12.1708 7.02843 12.1663 6.78414 12.1021C6.51732 12.0053 6.26739 11.8657 6.0715 11.6597C5.89362 11.4435 5.74164 11.1733 5.68648 10.8964C5.6482 10.5575 5.6831 10.2648 5.81369 9.9473C5.93866 9.69061 6.09739 9.4857 6.33044 9.31908C6.74361 9.05564 7.26598 8.9667 7.73882 9.12656Z" fill="#415BAB"/>
</g>
<path d="M14.7727 15.5987C15.0677 15.7575 15.3357 15.9985 15.5159 16.2811C15.7141 16.6122 15.8504 16.9264 15.8627 17.3149C15.8684 17.7237 15.8684 17.7237 15.7918 17.9072C15.6848 18.0863 15.5531 18.2518 15.3707 18.3576C15.1882 18.4263 14.9968 18.4398 14.8042 18.4151C14.4687 18.3329 14.168 18.1527 13.9169 17.9173C13.6365 17.6201 13.4451 17.2451 13.3415 16.8498C13.2863 16.5627 13.292 16.2699 13.3888 15.994C13.4575 15.8307 13.5442 15.7203 13.6804 15.61C13.7908 15.5334 13.8888 15.4805 14.0205 15.4557C14.2919 15.4332 14.5261 15.4872 14.7727 15.5987Z" fill="url(#paint0_linear_3164_671609)"/>
<path d="M12.7346 12.235C12.8889 12.2969 13.015 12.3769 13.1456 12.4805L13.2154 12.5334C13.515 12.7755 13.7075 13.1066 13.855 13.4568C13.962 13.7631 13.9947 14.0716 13.9406 14.3926C13.8877 14.5953 13.7965 14.7541 13.6524 14.9061C13.5138 15.0176 13.3877 15.0716 13.2132 15.1076C12.9925 15.1257 12.8101 15.0896 12.6051 15.0074C12.2527 14.8374 11.9937 14.6178 11.773 14.2969C11.5759 13.9984 11.4374 13.6888 11.4149 13.3284C11.4081 13.0717 11.407 12.833 11.5106 12.5931C11.5951 12.4501 11.693 12.3409 11.8281 12.244C12.1367 12.0852 12.4171 12.1314 12.7346 12.235Z" fill="url(#paint1_linear_3164_671609)"/>
<path d="M10.7969 8.90539C11.1313 9.04165 11.3982 9.26912 11.6245 9.54613C11.861 9.8727 12.0175 10.2421 12.0592 10.6441C12.0704 10.8749 12.0581 11.0934 11.9623 11.3073C11.8565 11.4909 11.7101 11.6328 11.5266 11.7409C11.3644 11.8084 11.1786 11.8107 11.0052 11.7983C10.7485 11.7521 10.5232 11.6238 10.3194 11.4661C9.98836 11.1801 9.74852 10.8682 9.59762 10.456C9.50416 10.1283 9.46362 9.84792 9.53457 9.51235C9.57848 9.35132 9.63366 9.22632 9.74176 9.09795C9.85549 8.98759 9.98386 8.89976 10.137 8.85134C10.3622 8.80967 10.5807 8.83219 10.7969 8.90539Z" fill="url(#paint2_linear_3164_671609)"/>
<path d="M8.81955 5.58025C9.15737 5.69623 9.41636 5.8978 9.65283 6.16468C9.8803 6.43945 10.0334 6.75701 10.1201 7.10271C10.1629 7.37523 10.1776 7.69503 10.0796 7.95629C9.99515 8.12858 9.89156 8.26371 9.74179 8.38307C9.59541 8.47429 9.4524 8.48667 9.28124 8.49343C8.9986 8.48442 8.78014 8.40672 8.54029 8.26033C8.23175 8.043 7.97727 7.76373 7.80385 7.42928C7.64733 7.05317 7.57076 6.72548 7.60116 6.31783C7.64283 6.11964 7.71827 5.95636 7.84439 5.79758C7.94912 5.68948 8.05271 5.61741 8.1946 5.56335C8.40517 5.51043 8.61011 5.52619 8.81955 5.58025Z" fill="url(#paint3_linear_3164_671609)"/>
<path d="M6.89707 2.25928C7.227 2.36626 7.49951 2.57459 7.73823 2.8212C7.97921 3.11398 8.16275 3.47996 8.23595 3.85157C8.27311 4.1207 8.27649 4.39434 8.1864 4.65334C8.0997 4.83126 7.96457 4.96977 7.80242 5.08238C7.66166 5.16233 7.55131 5.17697 7.39141 5.18147C7.13917 5.17922 6.95 5.12067 6.73041 5.00018C6.56488 4.89545 6.42413 4.77271 6.29125 4.62969L6.2372 4.57564C6.00524 4.33353 5.85547 4.02386 5.753 3.70743C5.68882 3.43604 5.68206 3.14213 5.74061 2.86962C5.79692 2.69958 5.87011 2.54981 5.99623 2.42031C6.25747 2.20523 6.57389 2.18609 6.89707 2.25928Z" fill="url(#paint4_linear_3164_671609)"/>
<path d="M18.7342 8.66295C18.9898 8.75641 19.1824 8.90844 19.3648 9.10663C19.5213 9.29581 19.5911 9.50751 19.635 9.74737C19.6621 9.97371 19.6181 10.1764 19.5337 10.387C19.4504 10.5334 19.3524 10.6437 19.2297 10.7575L19.1553 10.8295C18.9909 10.9388 18.8198 10.9827 18.6238 11.0052C18.3739 11.0142 18.1712 10.9647 17.946 10.8588C17.7354 10.744 17.5518 10.575 17.4201 10.3746C17.303 10.1539 17.2422 9.93993 17.2332 9.69106C17.241 9.46923 17.3064 9.29243 17.4122 9.09762C17.5214 8.93096 17.6464 8.82736 17.8165 8.72601C18.0991 8.58975 18.4335 8.58975 18.7342 8.66295ZM17.1622 6.12925C17.4302 6.23961 17.6329 6.4119 17.8187 6.63149C17.9223 6.77563 17.9797 6.91188 18.0135 7.0853C18.036 7.32291 18.0507 7.56727 17.9606 7.79248C17.8491 7.99743 17.7005 8.16634 17.5045 8.29359C17.3638 8.37917 17.223 8.4276 17.0586 8.44449C16.7884 8.44787 16.5665 8.42197 16.3244 8.2981C16.1217 8.17761 15.9528 8.01995 15.8177 7.82627C15.6916 7.5729 15.6364 7.34205 15.6398 7.0594C15.6578 6.84657 15.722 6.67203 15.8414 6.49523C15.9956 6.30718 16.1645 6.19457 16.392 6.10786C16.6386 6.03016 16.9201 6.04818 17.1622 6.12925Z" fill="#7890B3"/>
<path d="M21.348 6.07838C21.5608 6.19549 21.7241 6.34864 21.8649 6.54458C21.9685 6.7225 21.9876 6.91732 22 7.11888C22 7.33847 21.9493 7.50401 21.8435 7.69431C21.7207 7.88575 21.5811 8.02313 21.3852 8.13912C21.1746 8.23934 20.9685 8.24947 20.7377 8.24272C20.5643 8.2247 20.4258 8.18416 20.2771 8.0952C20.07 7.94318 19.9056 7.77427 19.7963 7.54117C19.7141 7.32271 19.7074 7.11213 19.7366 6.88128C19.7896 6.69548 19.865 6.51981 19.9821 6.36328C20.1308 6.22139 20.2918 6.10991 20.4821 6.02883C20.7827 5.95902 21.0586 5.95451 21.348 6.07838Z" fill="url(#paint5_linear_3164_671609)"/>
<path d="M14.0801 6.02414C14.3549 6.1345 14.5508 6.30454 14.7423 6.5275C14.8819 6.71331 14.9776 6.92501 15.0407 7.1491C15.0587 7.35518 15.0711 7.57589 15.0159 7.77746C14.9495 7.91822 14.8571 8.02632 14.7366 8.12655C14.6105 8.20425 14.4911 8.24929 14.3425 8.2628C14.1432 8.2583 13.9518 8.2065 13.7739 8.11754C13.6962 8.06799 13.6252 8.01619 13.5543 7.95763L13.4833 7.90133C13.2525 7.69526 13.123 7.42162 13.0183 7.13559C12.9575 6.92163 12.9631 6.72119 13.016 6.50836C13.0667 6.35409 13.1388 6.2426 13.2525 6.12549C13.4946 5.9228 13.7919 5.92955 14.0801 6.02414ZM15.4798 8.63103C15.7501 8.69972 15.9606 8.84499 16.1588 9.03642C16.3536 9.2425 16.4899 9.46771 16.571 9.7391C16.6149 9.94518 16.6284 10.1659 16.5687 10.3697C16.5079 10.5127 16.4381 10.6467 16.3244 10.7537C16.1712 10.8517 16.0215 10.899 15.8413 10.908C15.6195 10.8978 15.4348 10.8292 15.2434 10.721C15.0069 10.5488 14.8087 10.3382 14.6691 10.0803C14.5655 9.83707 14.5103 9.59834 14.5216 9.33371C14.5418 9.17493 14.5846 9.03868 14.6691 8.90129C14.7625 8.79432 14.8582 8.72112 14.9855 8.66031C15.1488 8.60738 15.3098 8.61414 15.4798 8.63103Z" fill="#5587C3"/>
<path d="M17.0839 11.2546C17.389 11.3717 17.6311 11.5485 17.8382 11.8018C17.9914 12.0506 18.1231 12.3152 18.1422 12.6102C18.1445 12.8117 18.1118 12.9806 18.0128 13.1574C17.9306 13.2812 17.8405 13.3646 17.711 13.4389C17.5545 13.5064 17.4217 13.5064 17.2528 13.5019C17.0141 13.4715 16.8329 13.3623 16.6392 13.2238C16.4039 13.0313 16.2328 12.7836 16.118 12.5032C16.0459 12.2555 16.056 11.9684 16.0954 11.7151C16.1247 11.6172 16.1743 11.5429 16.2429 11.4663C16.3398 11.3762 16.4321 11.3075 16.5503 11.2479C16.7338 11.2152 16.9027 11.2028 17.0839 11.2546ZM11.2149 6.33332C11.403 6.36259 11.5628 6.46505 11.7103 6.58102C11.797 6.65645 11.8803 6.73527 11.9614 6.81633L12.0323 6.88501C12.4016 7.27232 12.6583 7.79136 12.7889 8.30702C12.817 8.46239 12.8249 8.61214 12.8057 8.76976C12.7618 8.89023 12.7618 8.89023 12.7044 8.97243C12.6031 9.03885 12.6031 9.03885 12.4826 9.05462C12.3318 9.04899 12.2181 9.00282 12.0863 8.93077C11.6585 8.64817 11.3343 8.23496 11.1035 7.78235C10.9414 7.44796 10.7916 7.06966 10.813 6.69136C10.831 6.58439 10.8524 6.53823 10.9121 6.44366C11.01 6.35133 11.0787 6.32994 11.2149 6.33332ZM9.18955 3.26637C9.33591 3.26187 9.44737 3.2765 9.57797 3.34406C9.76148 3.45665 9.91684 3.59964 10.07 3.75051L10.1319 3.81018C10.4629 4.16034 10.7241 4.62758 10.8468 5.0892C10.902 5.32339 10.938 5.53618 10.8806 5.7715C10.8276 5.87283 10.8276 5.87283 10.7455 5.94038C10.6385 5.97078 10.5822 5.98317 10.4753 5.97416C10.1893 5.89985 9.96863 5.69494 9.7581 5.4979C9.36743 5.09596 9.08485 4.57129 8.94524 4.02973C8.91372 3.86985 8.90359 3.70998 8.9216 3.54785C8.96551 3.42963 8.96551 3.42963 9.02293 3.34631C9.12425 3.27876 9.12425 3.27876 9.18955 3.26637ZM14.9674 12.9806C15.0822 12.9581 15.1891 12.9626 15.3051 12.9806C15.6474 13.1202 15.9288 13.4073 16.154 13.6922C16.4433 14.075 16.655 14.4995 16.7574 14.969C16.7732 15.1176 16.7822 15.2594 16.7574 15.4069C16.7079 15.5026 16.6651 15.5668 16.5863 15.64C16.4816 15.6783 16.4366 15.6783 16.3285 15.6636C16.0583 15.5972 15.859 15.4227 15.6597 15.2358C15.2725 14.8339 14.9741 14.3373 14.821 13.8003C14.7827 13.6066 14.7715 13.4118 14.7985 13.2171C14.8469 13.1214 14.8919 13.0561 14.9674 12.9806ZM13.3203 9.67836C13.6073 9.7842 13.8595 10.0229 14.0554 10.2526C14.3785 10.6703 14.669 11.1409 14.7647 11.6667C14.7782 11.8153 14.7872 11.9583 14.7647 12.1047C14.7163 12.1993 14.6713 12.2657 14.5958 12.3411C14.481 12.3636 14.374 12.3591 14.2581 12.3411C13.917 12.2026 13.6355 11.9167 13.4114 11.6329C13.1266 11.258 12.8857 10.82 12.8057 10.3528C12.7911 10.194 12.7832 10.0398 12.8057 9.88215C12.8542 9.7842 12.8868 9.72678 12.9769 9.66485C13.1018 9.64121 13.1975 9.65022 13.3203 9.67836Z" fill="#4E78B4"/>
<path d="M6.5581 2.23444C6.74728 2.21755 6.89366 2.25584 7.07045 2.32453C7.3576 2.45853 7.60758 2.66573 7.80802 2.90897C8.04111 3.25805 8.22579 3.63191 8.25394 4.05645C8.25731 4.29405 8.24943 4.51139 8.14584 4.72759C8.08503 4.8143 8.01859 4.89088 7.94315 4.96407L7.90036 4.91115L7.8418 4.86273C7.76861 4.87061 7.76861 4.87061 7.70667 4.89651C7.65375 4.74561 7.60533 4.5981 7.57155 4.44157L7.53777 4.32333L7.43642 4.28955L7.40264 4.18933L7.33508 4.15554C7.31368 4.08573 7.31368 4.08573 7.29679 4.00127L7.2799 3.91681L7.26751 3.8515H7.19995L7.15603 3.72988C7.12338 3.64317 7.08622 3.55759 7.04343 3.47539C6.99951 3.3853 6.97812 3.30985 6.96348 3.21188V3.27945H6.86213L6.86889 3.1826L6.86213 3.07675L6.76079 3.00919V2.90897H6.69323V2.8414L6.59188 2.80762C6.5536 2.74118 6.5536 2.74118 6.51981 2.6601L6.48603 2.57902C6.46351 2.52159 6.44212 2.46191 6.42297 2.40335L6.52432 2.33579L6.5581 2.23444Z" fill="#FBAC2C"/>
<defs>
<linearGradient id="paint0_linear_3164_671609" x1="15.8649" y1="16.9386" x2="13.3064" y2="16.9386" gradientUnits="userSpaceOnUse">
<stop stop-color="#FAA326"/>
<stop offset="1" stop-color="#FCB12F"/>
</linearGradient>
<linearGradient id="paint1_linear_3164_671609" x1="13.9663" y1="13.6264" x2="11.4123" y2="13.6264" gradientUnits="userSpaceOnUse">
<stop stop-color="#FAA326"/>
<stop offset="1" stop-color="#FCB12F"/>
</linearGradient>
<linearGradient id="paint2_linear_3164_671609" x1="12.0626" y1="10.3174" x2="9.49854" y2="10.3174" gradientUnits="userSpaceOnUse">
<stop stop-color="#FAA326"/>
<stop offset="1" stop-color="#FCB12F"/>
</linearGradient>
<linearGradient id="paint3_linear_3164_671609" x1="10.1531" y1="7.0121" x2="7.5946" y2="7.0121" gradientUnits="userSpaceOnUse">
<stop stop-color="#FAA326"/>
<stop offset="1" stop-color="#FCB12F"/>
</linearGradient>
<linearGradient id="paint4_linear_3164_671609" x1="8.26051" y1="3.70109" x2="5.7005" y2="3.70109" gradientUnits="userSpaceOnUse">
<stop stop-color="#FAA326"/>
<stop offset="1" stop-color="#FCB12F"/>
</linearGradient>
<linearGradient id="paint5_linear_3164_671609" x1="22" y1="7.11218" x2="19.7208" y2="7.11218" gradientUnits="userSpaceOnUse">
<stop stop-color="#FAA326"/>
<stop offset="1" stop-color="#FCB12F"/>
</linearGradient>
</defs>
</svg>
