<svg width="132" height="18" viewBox="0 0 132 18" fill="none" xmlns="http://www.w3.org/2000/svg">
<path d="M7.62712 18C12.1895 18 15.3374 14.7827 15.3374 9.80432V0.208012H12.3282V9.56856C12.3282 13.0216 10.5532 15.2681 7.64098 15.2681C4.72881 15.2681 3.02311 12.9938 3.02311 9.56856V0.208012H0V9.80432C0 14.7689 3.06471 18 7.62712 18ZM43.0863 17.792H46.1094V0.208012H43.0863V17.792ZM50.339 17.792H53.3621V10.359H60.6564V7.62712H53.3482V2.93992H62.8197L62.792 0.208012H50.339V17.792ZM72.5963 18C77.852 18 81.624 14.3945 81.624 9C81.624 3.74422 77.9352 0 72.5963 0C67.6178 0 63.5685 3.39754 63.5685 9C63.5685 14.4361 67.4098 18 72.5963 18ZM72.5963 15.2542C68.963 15.2542 66.6887 12.5501 66.6887 8.98614C66.6887 5.40833 68.9907 2.71802 72.5963 2.71802C76.2295 2.71802 78.5038 5.44993 78.5038 8.98614C78.5038 12.5085 76.285 15.2542 72.5963 15.2542ZM108.652 17.792H111.675V0.208012H108.652V17.792ZM123.601 18C127.775 18 131.186 15.5177 131.755 11.4823H128.663C128.094 13.9784 126.111 15.2681 123.615 15.2681C120.189 15.2681 118.068 12.5917 118.068 9C118.068 5.43606 120.203 2.7319 123.615 2.7319C126.139 2.7319 128.108 4.02157 128.69 6.51772H131.783C131.214 2.46841 127.886 0 123.601 0C118.83 0 114.934 3.42527 114.934 9C114.934 14.4638 118.622 18 123.601 18ZM34.6271 17.9445C37.2897 17.9445 39.037 16.2111 39.037 13.2712V0.194148H36.0139V13.4237C36.0139 14.6579 35.3898 15.0185 34.7519 15.0185C34.1279 15.0185 33.7257 14.6579 33.3374 13.8259L28.6641 3.81356C27.4021 1.1094 25.8767 0.0277451 23.6302 0.0277451C20.8983 0.0277451 18.9846 1.83052 18.9846 5.36673V17.7781H22.0077V4.99229C22.0077 3.55008 22.812 2.95378 23.6857 2.95378C24.5316 2.95378 25.0585 3.43913 25.5162 4.45146L30.2311 14.5886C31.3544 16.9877 32.755 17.9445 34.6271 17.9445ZM100.165 17.9445C102.827 17.9445 104.575 16.2111 104.575 13.2712V0.194148H101.552V13.4237C101.552 14.6579 100.928 15.0185 100.29 15.0185C99.6656 15.0185 99.2634 14.6579 98.8752 13.8259L94.2018 3.81356C92.9399 1.1094 91.4144 0.0277451 89.1679 0.0277451C86.436 0.0277451 84.5223 1.83052 84.5223 5.36673V17.7781H87.5454V4.99229C87.5454 3.55008 88.3497 2.95378 89.2234 2.95378C90.0693 2.95378 90.5963 3.43913 91.0539 4.45146L95.7688 14.5886C96.8921 16.9877 98.2788 17.9445 100.165 17.9445Z" fill="black"/>
</svg>
