<svg width="1228" height="613" viewBox="0 0 1228 613" fill="none" xmlns="http://www.w3.org/2000/svg">
<g clip-path="url(#clip0_2028_25214)">
<path d="M48 32.5H1180C1188.56 32.5 1195.5 39.4396 1195.5 48V968C1195.5 976.56 1188.56 983.5 1180 983.5H48C39.4396 983.5 32.5 976.56 32.5 968V48L32.5049 47.5996C32.7172 39.2242 39.5735 32.5 48 32.5Z" fill="white"/>
<path d="M48 32.5H1180C1188.56 32.5 1195.5 39.4396 1195.5 48V968C1195.5 976.56 1188.56 983.5 1180 983.5H48C39.4396 983.5 32.5 976.56 32.5 968V48L32.5049 47.5996C32.7172 39.2242 39.5735 32.5 48 32.5Z" stroke="#F2F5F8"/>
<mask id="path-3-inside-1_2028_25214" fill="white">
<path d="M32 32H1196V80H32V32Z"/>
</mask>
<path d="M1196 80V79H32V80V81H1196V80Z" fill="#F2F5F8" mask="url(#path-3-inside-1_2028_25214)"/>
<path d="M1098 63.5C1093.86 63.5 1090.5 60.1422 1090.5 56C1090.5 51.8578 1093.86 48.5 1098 48.5C1102.14 48.5 1105.5 51.8578 1105.5 56C1105.5 60.1422 1102.14 63.5 1098 63.5ZM1097.25 58.25V59.75H1098.75V58.25H1097.25ZM1098.75 57.0162C1099.35 56.8346 1099.87 56.4425 1100.21 55.9113C1100.55 55.3801 1100.68 54.7453 1100.59 54.1223C1100.5 53.4994 1100.19 52.9298 1099.71 52.5173C1099.24 52.1049 1098.63 51.8769 1098 51.875C1097.39 51.875 1096.8 52.0851 1096.34 52.4697C1095.87 52.8544 1095.54 53.3897 1095.43 53.9847L1096.9 54.2795C1096.94 54.0706 1097.04 53.8778 1097.19 53.7236C1097.33 53.5694 1097.52 53.4602 1097.73 53.4085C1097.93 53.3569 1098.15 53.365 1098.35 53.432C1098.56 53.4989 1098.73 53.6219 1098.87 53.7867C1099 53.9514 1099.09 54.1512 1099.12 54.3626C1099.14 54.5741 1099.11 54.7886 1099.02 54.9812C1098.93 55.1738 1098.78 55.3365 1098.6 55.4505C1098.42 55.5645 1098.21 55.625 1098 55.625C1097.8 55.625 1097.61 55.704 1097.47 55.8447C1097.33 55.9853 1097.25 56.1761 1097.25 56.375V57.5H1098.75V57.0162Z" fill="#525866"/>
<path d="M1130 49C1129.56 49 1129.21 49.391 1129.21 49.875V50.4C1127.42 50.8047 1126.07 52.5711 1126.07 54.6875V55.2016C1126.07 56.4867 1125.65 57.7281 1124.88 58.6906L1124.7 58.9176C1124.49 59.1746 1124.44 59.5438 1124.57 59.8582C1124.69 60.1727 1124.98 60.375 1125.29 60.375H1134.71C1135.02 60.375 1135.3 60.1727 1135.43 59.8582C1135.56 59.5438 1135.51 59.1746 1135.3 58.9176L1135.12 58.6906C1134.35 57.7281 1133.93 56.4895 1133.93 55.2016V54.6875C1133.93 52.5711 1132.58 50.8047 1130.79 50.4V49.875C1130.79 49.391 1130.43 49 1130 49ZM1131.11 62.4887C1131.41 62.1605 1131.57 61.7148 1131.57 61.25H1130H1128.43C1128.43 61.7148 1128.59 62.1605 1128.89 62.4887C1129.18 62.8168 1129.58 63 1130 63C1130.42 63 1130.82 62.8168 1131.11 62.4887Z" fill="#525866"/>
<g filter="url(#filter0_d_2028_25214)">
<circle cx="1133.5" cy="52.5" r="1.5" fill="#FB3748"/>
<circle cx="1133.5" cy="52.5" r="2" stroke="white"/>
</g>
<path d="M1150 56C1150 49.3726 1155.37 44 1162 44V44C1168.63 44 1174 49.3726 1174 56V56C1174 62.6274 1168.63 68 1162 68V68C1155.37 68 1150 62.6274 1150 56V56Z" fill="#E1E4EA"/>
<g clip-path="url(#clip1_2028_25214)">
<ellipse cx="1162" cy="67.4031" rx="9.6" ry="7.2" fill="white" fill-opacity="0.72"/>
<circle opacity="0.9" cx="1162" cy="53.5969" r="4.8" fill="white"/>
</g>
<rect width="1164" height="852" transform="translate(32 80)" fill="white"/>
<rect x="44" y="92" width="637" height="250" rx="12" fill="#FBFBFB"/>
<rect x="691" y="92" width="493" height="250" rx="12" fill="#FBFBFB"/>
<rect x="44" y="352" width="291" height="250" rx="12" fill="#FBFBFB"/>
<rect x="345" y="352" width="414.5" height="250" rx="12" fill="#FBFBFB"/>
<rect x="769.5" y="352" width="414.5" height="250" rx="12" fill="#FBFBFB"/>
<rect x="44" y="612" width="395" height="250" rx="12" fill="#FBFBFB"/>
<rect x="449" y="612" width="395" height="250" rx="12" fill="#FBFBFB"/>
<rect x="854" y="612" width="330" height="250" rx="12" fill="#FBFBFB"/>
<rect x="1" y="269" width="1268" height="347" fill="url(#paint0_linear_2028_25214)"/>
</g>
<defs>
<filter id="filter0_d_2028_25214" x="1129" y="49" width="9" height="9" filterUnits="userSpaceOnUse" color-interpolation-filters="sRGB">
<feFlood flood-opacity="0" result="BackgroundImageFix"/>
<feColorMatrix in="SourceAlpha" type="matrix" values="0 0 0 0 0 0 0 0 0 0 0 0 0 0 0 0 0 0 127 0" result="hardAlpha"/>
<feOffset dy="1"/>
<feGaussianBlur stdDeviation="1"/>
<feComposite in2="hardAlpha" operator="out"/>
<feColorMatrix type="matrix" values="0 0 0 0 0.0392157 0 0 0 0 0.0509804 0 0 0 0 0.0784314 0 0 0 0.03 0"/>
<feBlend mode="normal" in2="BackgroundImageFix" result="effect1_dropShadow_2028_25214"/>
<feBlend mode="normal" in="SourceGraphic" in2="effect1_dropShadow_2028_25214" result="shape"/>
</filter>
<linearGradient id="paint0_linear_2028_25214" x1="635" y1="481.5" x2="635" y2="616" gradientUnits="userSpaceOnUse">
<stop stop-color="white" stop-opacity="0"/>
<stop offset="1" stop-color="white"/>
</linearGradient>
<clipPath id="clip0_2028_25214">
<path d="M32 48C32 39.1634 39.1634 32 48 32H1180C1188.84 32 1196 39.1634 1196 48V613H32V48Z" fill="white"/>
</clipPath>
<clipPath id="clip1_2028_25214">
<rect x="1150" y="44" width="24" height="24" rx="12" fill="white"/>
</clipPath>
</defs>
</svg>
